PathFileType	4	(X/Y/Z)	C:/Users/beibeiliu/ov580/test_trc/User1\sequence.25_training_dense_right.trc
DataRate	CameraRate	NumFrames	NumMarkers	Units	OrigDataRate	OrigDataStartFrame	OrigNumFrames
120	120	21	19	mm	120	29	84
Frame#	Time	ThumbCMC			ThumbMCP			ThumbIP			ThumbTip			IndexMCP			IndexPIP			IndexTip			MiddleMCP			MiddlePIP			MiddleTip			RingMCP			RingPIP			RingTip			PinkyMCP			PinkyPIP			PinkyTip			BackHand1			BackHand2			BackHand3	
		X0	Y0	Z0	X1	Y1	Z1	X2	Y2	Z2	X3	Y3	Z3	X4	Y4	Z4	X5	Y5	Z5	X6	Y6	Z6	X7	Y7	Z7	X8	Y8	Z8	X9	Y9	Z9	X10	Y10	Z10	X11	Y11	Z11	X12	Y12	Z12	X13	Y13	Z13	X14	Y14	Z14	X15	Y15	Z15	X16	Y16	Z16	X17	Y17	Z17	X18	Y18	Z18	
28	0.233333	137.54	56.1499	98.008	114.436	48.5956	67.9052	101.103	48.2754	44.1172	89.8252	42.7802	22.5868	160.912	61.3274	14.3163	146.73	53.6034	-13.9299	127.604	40.3821	-26.8015	169.948	43.559	3.27327	145.095	33.9694	-15.7815	115.002	19.8602	11.881	174.603	17.5048	10.555	147.492	11.4356	-7.36668	123.179	4.50786	19.8603	178.23	-2.72411	23.9432	154.317	-7.14548	7.32815	127.156	-4.81039	26.4762	193.924	15.5471	71.0402	195.439	15.7132	100.442	182.912	48.1433	87.7941	
29	0.241667	153.219	60.8892	87.9661	127.43	60.5402	63.8409	114.191	63.4776	33.0054	100.815	57.4207	13.2269	168.28	46.9414	5.76009	147.742	45.1239	-15.998	121.027	42.7149	-22.3607	165.918	23.1042	2.02471	130.925	26.0132	-4.47217	116.465	30.7747	29.7139	157.646	4.14465	10.8577	125.305	7.70003	9.89395	120.043	12.1586	45.6112	156.503	-12.8716	26.0708	128.826	-7.44059	20.5225	122.073	6.51241	49.6936	188.539	6.18682	65.6984	188.836	4.48522	102.072	191.143	38.5978	82.6499	
30	0.25	160.543	55.8563	87.5169	132.856	64.9883	58.2842	120.74	57.816	31.7187	105.385	59.3152	14.3911	168.484	39.376	5.49183	138.986	35.3235	-15.7099	113.052	36.4226	-16.8931	151.748	14.3986	1.86253	119.731	23.4817	6.67923	122.66	32.2035	46.6926	143.277	-3.59321	15.3499	112.21	8.08126	24.9759	121.39	20.4967	54.6228	138.539	-19.6362	31.6952	113.841	-2.27566	37.7	120.592	11.1811	64.3123	182.636	-10.0722	67.1351	184.33	-5.63294	100.065	192.343	25.8311	80.0747	
31	0.258333	164.92	53.6348	81.091	136.189	64.9445	53.0804	123.353	58.3288	29.3265	107.442	61.9652	8.99045	161.132	27.8449	3.77328	133.724	33.9374	-15.3763	105.67	41.3133	-15.1961	144.483	11.0552	6.46753	114.084	27.4477	13.0565	123.81	37.1314	50.0969	125.524	-3.68393	20.4405	106.273	18.6097	36.1119	122.578	23.2245	62.8353	119.168	-17.6179	36.2158	103.17	3.34507	48.636	126.906	13.8301	73.078	173.055	-15.6748	65.5901	177.636	-8.54759	98.6421	189.534	21.9634	77.5225	
32	0.266667	169.637	52.0845	78.7116	143.918	65.0055	51.1543	127.694	67.1324	25.9682	113.631	69.871	11.4044	154.463	25.1966	-1.84526	128.892	31.1059	-14.2496	101.428	44.2718	-14.067	131.18	11.2598	7.12787	108.959	35.071	18.7806	129.042	40.8132	51.9338	117.627	2.53751	22.3634	102.261	28.3588	41.4644	125.095	27.2012	66.3381	106.426	-11.0089	42.3768	100.983	15.1242	51.5211	123.438	19.1693	74.1475	160.773	-19.4405	67.7369	169.365	-11.0397	99.2156	182.383	9.84367	74.5401	
33	0.275	175.567	57.5494	76.9041	151.382	71.9265	50.0386	136.932	76.01	27.2147	123.479	76.0031	8.00048	158.532	23.549	1.16683	135.274	31.5144	-15.8204	110.967	48.0364	-18.4529	138.79	14.9077	8.06746	115.608	41.2092	16.5898	136.216	45.469	51.7347	121.807	7.06029	23.3212	107.405	35.1898	38.8064	126.4	32.7459	64.3432	108.701	-6.53398	42.9408	103.699	22.3473	49.9025	128.807	22.8536	76.1028	161.594	-12.6811	69.963	167.669	-6.76133	106.351	185.47	12.1186	79.0086	
34	0.283333	182.142	61.7661	80.6897	161.283	74.3066	47.0087	151.715	72.6225	22.0584	141.315	75.8328	4.60203	184.558	29.9786	1.89397	164.868	32.4898	-15.3651	134.946	48.2623	-26.3652	164.955	17.4911	6.44233	136.891	39.7032	8.17743	146.297	47.91	44.6735	142.34	7.99506	17.1789	125.728	34.9956	26.4991	138.82	35.928	58.5825	128.474	-1.75899	33.0113	120.034	22.4621	41.1084	141.039	27.7341	67.4088	177.977	-7.12667	71.2072	177.677	-2.34833	104.358	196.451	19.2808	84.234	
35	0.291667	181.885	70.1865	84.4148	163.278	75.2609	53.2164	161.844	71.8014	25.0195	153.473	72.0294	3.9556	212.616	53.5289	9.96494	197.251	53.0704	-12.3232	165.064	54.6821	-28.261	199	30.5104	7.68337	166.511	43.8233	3.43729	162.824	50.2405	42.7971	181.434	13.6317	13.4402	153.265	29.1807	19.0568	160.2	35.5841	54.0755	174.108	-5.48543	28.1268	150.871	15.1025	31.4239	162.623	25.2034	64.7785	210.075	4.60003	74.0756	202.75	4.93063	107.165	212.779	38.3109	88.4375	
36	0.3	163.803	62.0008	89.859	150.921	57.653	55.7718	153.235	60.7042	26.601	148.592	61.3243	-0.854977	202.093	86.1435	21.5208	190.407	79.2211	-7.9773	170.519	62.4019	-24.4341	208.353	66.8242	12.0687	176.355	51.668	5.09144	172.269	40.9315	44.2436	208.758	40.1406	12.933	177.343	29.0717	18.4257	175.952	28.1418	47.6692	216.758	19.949	26.7126	187.604	16.0997	26.64	181.223	18.8817	59.7542	233.007	39.6446	74.2436	223.774	27.4657	110.03	208.319	60.8737	96.7889	
37	0.308333	153.435	38.7141	90.5407	142.919	30.1447	55.4568	144.218	35.5052	24.555	142.586	34.4132	-2.75165	169.763	87.5932	27.9295	163.567	79.0775	-3.76685	154.973	52.4737	-19.8881	190.186	72.7653	12.4269	175.62	43.5963	3.84709	174.321	29.1128	41.6237	205.607	51.8064	14.262	187.828	26.7307	14.503	189.018	17.8002	47.7752	220.614	37.1442	22.9398	202.064	15.2047	28.4713	191.974	18.2259	60.5872	217.633	64.5931	77.1535	223.25	45.1924	109.792	185.762	64.3546	101.32	
38	0.316667	144.826	27.6984	89.7204	133.384	9.52953	53.6072	131.443	6.40667	25.5442	135.879	0.25755	3.18261	150.448	63.5219	13.6664	145.021	47.4586	-10.2629	145.549	13.4536	-16.7784	170.61	51.0765	6.70186	164.725	17.7816	2.79572	165.037	9.01151	40.3173	190.967	34.2137	13.9962	179.166	2.84147	19.8437	179.242	6.10562	54.918	210.299	23.7409	25.9992	195.568	-2.08288	34.3916	188.854	2.62694	65.2455	205.91	56.8737	69.223	205.84	47.2884	107.399	170.776	60.1689	93.9311	
39	0.325	134.17	27.3536	92.3036	120.984	4.97739	62.8855	112.07	-6.19999	37.8639	106.16	-18.9526	17.8753	144.259	39.5893	13.7494	132.204	14.8489	-10.3198	121.729	-12.4684	-5.84732	162.41	19.5012	7.95688	143.742	-9.36679	11.8221	144.587	-1.61206	54.0183	171.755	1.20632	17.7043	155.117	-21.507	33.841	160.079	-8.42679	64.8532	191.883	-10.4846	33.2602	169.426	-25.3835	47.9604	168.727	-6.69368	73.0534	195.846	36.8998	65.2315	200.527	33.3132	102.026	165.223	52.2256	84.8107	
40	0.333333	126.723	46.1401	91.796	102.879	28.5267	68.6975	90.8517	17.7965	43.2896	78.945	5.04203	24.8378	139.528	28.7826	11.8711	115.377	11.795	-4.91036	89.2668	-8.10905	3.67317	140.075	3.06969	12.2995	109.635	-9.04152	25.5008	117.488	7.97346	59.4502	141.275	-18.3669	27.6219	115.585	-19.0093	49.1493	131.061	-2.33669	71.5654	149.809	-30.3184	43.8231	128.686	-25.7665	65.3872	142.567	-0.909732	80.3256	187.118	6.86394	66.8474	191.21	14.7771	100.551	172.528	42.4475	79.3724	
41	0.341667	145.784	61.4532	82.2987	114.328	56.8115	60.2422	94.188	56.3853	39.3504	78.2477	46.6324	24.914	135.284	27.9779	5.75564	104.917	24.4932	-7.3638	73.7693	23.8737	1.50911	123.679	4.70353	14.4908	92.2716	16.5979	27.7231	112.856	25.4717	62.0323	111.344	-10.657	32.1044	93.8179	9.04553	51.5139	118.73	16.6082	71.8758	112.356	-25.4761	53.0197	99.4404	-3.505	69.3085	125.19	7.59514	85.7977	166.39	-8.54588	67.6768	176.176	1.81557	101.469	176.141	30.1933	72.7697	
42	0.35	165.727	58.4689	79.132	138.299	69.2818	49.5712	121.247	67.4158	32.933	103.531	65.02	15.5293	152.593	24.4597	0.740082	126.688	28.4314	-12.5269	99.203	39.9075	-11.9528	131.363	8.48525	12.9989	104.896	31.3177	21.6383	124.123	41.2	52.7623	112.594	0.868197	28.5665	98.6292	23.3973	45.8323	124.036	27.0755	67.6751	105.899	-11.7805	48.8924	99.3256	15.0391	59.2516	127.238	17.9388	77.608	160.534	-14.0005	68.3127	168.807	-5.5795	103.363	182.739	17.1361	73.8522	
43	0.358333	187.801	57.0929	77.3349	165.773	65.466	47.9829	153.787	63.5872	20.224	140.078	69.4111	2.63591	186.24	17.1315	4.42529	166.698	28.052	-21.104	138.36	43.4271	-25.9089	160.668	9.11638	6.13429	141.059	35.2451	7.96863	153.902	41.4755	47.603	144.904	0.817318	20.6893	128.123	30.6858	31.3053	143.45	29.7865	61.2668	134.485	-10.3733	37.0944	123.43	18.749	42.9217	147.369	20.9058	68.4983	178.741	-13.5655	72.2909	177.841	-9.02296	105.689	202.613	15.3743	78.5593	
44	0.366667	199.782	59.635	82.5322	182.656	70.227	46.9206	177.696	72.3155	20.6226	170.685	69.3742	1.78201	226.058	36.5188	8.73815	208.219	40.0434	-18.1238	181.681	47.5951	-27.5164	206.263	23.1759	4.18103	176.223	40.0074	6.72624	178.307	46.0805	44.0349	187.314	5.15972	15.3821	161.438	30.4266	22.0211	167.993	31.1639	54.6536	175.977	-7.02093	24.5005	156.892	13.6421	28.9616	168.706	25.5874	56.8944	212.125	-5.28087	70.5768	204.169	0.387898	106.79	225.12	28.9791	90.258	
45	0.375	187.407	68.4352	90.775	172.603	71.5392	54.4539	175.862	72.0275	25.4425	174.173	72.4031	1.73384	232.924	79.7244	22.0041	220.656	78.2663	-5.50571	195.336	71.1678	-22.5882	228.363	57.7462	14.1799	196.234	51.1047	5.32818	185.893	49.8301	46.2474	220.946	35.4633	15.6353	185.27	35.3257	19.5659	184.377	32.2281	50.3724	220.144	9.71377	25.2831	188.518	16.5464	26.427	189.22	27.0664	59.2345	241.967	22.9407	73.2968	229.659	19.3693	108.116	228.66	56.0668	96.7179	
46	0.383333	164.134	56.0807	96.872	153.01	57.1161	55.2689	155.056	62.8078	28.757	152.906	60.8669	7.84906	193.165	106.768	32.7476	185.116	100.217	1.12179	173.002	77.2031	-16.145	206.203	88.3679	22.9452	185.889	64.7652	7.27342	180.421	46.1895	46.1806	218.041	60.096	17.7231	190.308	40.1937	19.0784	192.442	31.3791	54.366	232.125	43.1138	28.3705	201.721	29.0866	28.6488	199.194	27.8905	60.2046	234.919	60.7364	82.8765	230.662	42.1954	110.71	204.264	71.981	104.693	
47	0.391667	147.911	39.3283	95.6692	140.404	32.7651	59.2343	131.566	37.8002	28.9903	133.438	39.0447	3.23365	154.16	95.9647	36.2377	144.455	85.9159	2.79223	140.706	60.0414	-12.5294	174.343	83.0599	19.119	165.933	51.5007	7.83236	165.099	34.0888	43.8774	196.352	63.7282	20.7777	178.728	32.8616	20.235	184.432	25.266	53.5688	210.79	51.4195	26.582	196.501	25.358	28.465	193.112	22.456	59.2298	212.085	70.9521	78.0196	214.964	50.7149	113.863	180.378	69.7744	105.358	
48	0.4	132.386	32.117	96.8799	121.921	16.1858	63.927	110.608	14.3577	34.1739	110.819	8.11324	14.6309	128.61	73.5237	27.3113	121.017	56.2802	-0.737261	115.973	24.6475	-8.47742	151.074	58.6123	13.0482	137.73	28.7245	8.08913	140.829	16.1049	44.8876	166.469	39.6969	17.0185	159.865	8.16729	24.355	160.608	11.3566	55.4374	191.614	29.1148	25.103	174.554	5.0624	32.1551	173.188	13.3106	67.2145	193.586	61.0206	70.202	200.205	45.7765	107.99	165.874	63.3049	97.0089	
